<svg id="visual" viewBox="0 0 900 600" width="900" height="600" xmlns="http://www.w3.org/2000/svg" xmlns:xlink="http://www.w3.org/1999/xlink" version="1.1"><rect x="0" y="0" width="900" height="600" fill="#001220"></rect><defs><linearGradient id="grad1_0" x1="33.3%" y1="0%" x2="100%" y2="100%"><stop offset="20%" stop-color="#00cc13" stop-opacity="1"></stop><stop offset="80%" stop-color="#00cc13" stop-opacity="1"></stop></linearGradient></defs><defs><linearGradient id="grad1_1" x1="33.3%" y1="0%" x2="100%" y2="100%"><stop offset="20%" stop-color="#00cc13" stop-opacity="1"></stop><stop offset="80%" stop-color="#009f66" stop-opacity="1"></stop></linearGradient></defs><defs><linearGradient id="grad1_2" x1="33.3%" y1="0%" x2="100%" y2="100%"><stop offset="20%" stop-color="#006e78" stop-opacity="1"></stop><stop offset="80%" stop-color="#009f66" stop-opacity="1"></stop></linearGradient></defs><defs><linearGradient id="grad1_3" x1="33.3%" y1="0%" x2="100%" y2="100%"><stop offset="20%" stop-color="#006e78" stop-opacity="1"></stop><stop offset="80%" stop-color="#003d5a" stop-opacity="1"></stop></linearGradient></defs><defs><linearGradient id="grad1_4" x1="33.3%" y1="0%" x2="100%" y2="100%"><stop offset="20%" stop-color="#001220" stop-opacity="1"></stop><stop offset="80%" stop-color="#003d5a" stop-opacity="1"></stop></linearGradient></defs><defs><linearGradient id="grad2_0" x1="0%" y1="0%" x2="66.7%" y2="100%"><stop offset="20%" stop-color="#00cc13" stop-opacity="1"></stop><stop offset="80%" stop-color="#00cc13" stop-opacity="1"></stop></linearGradient></defs><defs><linearGradient id="grad2_1" x1="0%" y1="0%" x2="66.7%" y2="100%"><stop offset="20%" stop-color="#009f66" stop-opacity="1"></stop><stop offset="80%" stop-color="#00cc13" stop-opacity="1"></stop></linearGradient></defs><defs><linearGradient id="grad2_2" x1="0%" y1="0%" x2="66.7%" y2="100%"><stop offset="20%" stop-color="#009f66" stop-opacity="1"></stop><stop offset="80%" stop-color="#006e78" stop-opacity="1"></stop></linearGradient></defs><defs><linearGradient id="grad2_3" x1="0%" y1="0%" x2="66.7%" y2="100%"><stop offset="20%" stop-color="#003d5a" stop-opacity="1"></stop><stop offset="80%" stop-color="#006e78" stop-opacity="1"></stop></linearGradient></defs><defs><linearGradient id="grad2_4" x1="0%" y1="0%" x2="66.7%" y2="100%"><stop offset="20%" stop-color="#003d5a" stop-opacity="1"></stop><stop offset="80%" stop-color="#001220" stop-opacity="1"></stop></linearGradient></defs><g transform="translate(900, 0)"><path d="M0 432.7C-57.2 426.9 -114.4 421.1 -165.6 399.7C-216.7 378.3 -261.8 341.3 -299.8 299.8C-337.9 258.3 -368.9 212.2 -389.9 161.5C-410.9 110.8 -421.8 55.4 -432.7 0L0 0Z" fill="#00273f"></path><path d="M0 346.1C-45.8 341.5 -91.6 336.9 -132.5 319.8C-173.4 302.7 -209.4 273.1 -239.9 239.9C-270.3 206.6 -295.1 169.8 -311.9 129.2C-328.7 88.6 -337.4 44.3 -346.1 0L0 0Z" fill="#00556e"></path><path d="M0 259.6C-34.3 256.1 -68.7 252.7 -99.3 239.8C-130 227 -157.1 204.8 -179.9 179.9C-202.7 155 -221.3 127.3 -233.9 96.9C-246.5 66.5 -253.1 33.2 -259.6 0L0 0Z" fill="#008775"></path><path d="M0 173.1C-22.9 170.8 -45.8 168.4 -66.2 159.9C-86.7 151.3 -104.7 136.5 -119.9 119.9C-135.1 103.3 -147.6 84.9 -156 64.6C-164.3 44.3 -168.7 22.2 -173.1 0L0 0Z" fill="#00b64b"></path><path d="M0 86.5C-11.4 85.4 -22.9 84.2 -33.1 79.9C-43.3 75.7 -52.4 68.3 -60 60C-67.6 51.7 -73.8 42.4 -78 32.3C-82.2 22.2 -84.4 11.1 -86.5 0L0 0Z" fill="#00cc13"></path></g><g transform="translate(0, 600)"><path d="M0 -432.7C55.1 -420.6 110.1 -408.5 160.3 -387.1C210.5 -365.7 255.9 -335 297.7 -297.7C339.5 -260.3 377.8 -216.3 399.7 -165.6C421.6 -114.8 427.2 -57.4 432.7 0L0 0Z" fill="#00273f"></path><path d="M0 -346.1C44.1 -336.5 88.1 -326.8 128.3 -309.7C168.4 -292.6 204.7 -268 238.2 -238.2C271.6 -208.3 302.3 -173 319.8 -132.5C337.3 -91.9 341.7 -45.9 346.1 0L0 0Z" fill="#00556e"></path><path d="M0 -259.6C33 -252.3 66.1 -245.1 96.2 -232.3C126.3 -219.4 153.5 -201 178.6 -178.6C203.7 -156.2 226.7 -129.8 239.8 -99.3C253 -68.9 256.3 -34.5 259.6 0L0 0Z" fill="#008775"></path><path d="M0 -173.1C22 -168.2 44.1 -163.4 64.1 -154.8C84.2 -146.3 102.3 -134 119.1 -119.1C135.8 -104.1 151.1 -86.5 159.9 -66.2C168.7 -45.9 170.9 -23 173.1 0L0 0Z" fill="#00b64b"></path><path d="M0 -86.5C11 -84.1 22 -81.7 32.1 -77.4C42.1 -73.1 51.2 -67 59.5 -59.5C67.9 -52.1 75.6 -43.3 79.9 -33.1C84.3 -23 85.4 -11.5 86.5 0L0 0Z" fill="#00cc13"></path></g></svg>