<svg id="visual" viewBox="0 0 900 600" width="900" height="600" xmlns="http://www.w3.org/2000/svg" xmlns:xlink="http://www.w3.org/1999/xlink" version="1.1"><rect x="0" y="0" width="900" height="600" fill="#001220"></rect><defs><linearGradient id="grad1_0" x1="33.3%" y1="100%" x2="100%" y2="0%"><stop offset="20%" stop-color="#00cc13" stop-opacity="1"></stop><stop offset="80%" stop-color="#00cc13" stop-opacity="1"></stop></linearGradient></defs><defs><linearGradient id="grad1_1" x1="33.3%" y1="100%" x2="100%" y2="0%"><stop offset="20%" stop-color="#00cc13" stop-opacity="1"></stop><stop offset="80%" stop-color="#00b350" stop-opacity="1"></stop></linearGradient></defs><defs><linearGradient id="grad1_2" x1="33.3%" y1="100%" x2="100%" y2="0%"><stop offset="20%" stop-color="#00986c" stop-opacity="1"></stop><stop offset="80%" stop-color="#00b350" stop-opacity="1"></stop></linearGradient></defs><defs><linearGradient id="grad1_3" x1="33.3%" y1="100%" x2="100%" y2="0%"><stop offset="20%" stop-color="#00986c" stop-opacity="1"></stop><stop offset="80%" stop-color="#007c78" stop-opacity="1"></stop></linearGradient></defs><defs><linearGradient id="grad1_4" x1="33.3%" y1="100%" x2="100%" y2="0%"><stop offset="20%" stop-color="#006074" stop-opacity="1"></stop><stop offset="80%" stop-color="#007c78" stop-opacity="1"></stop></linearGradient></defs><defs><linearGradient id="grad1_5" x1="33.3%" y1="100%" x2="100%" y2="0%"><stop offset="20%" stop-color="#006074" stop-opacity="1"></stop><stop offset="80%" stop-color="#004461" stop-opacity="1"></stop></linearGradient></defs><defs><linearGradient id="grad1_6" x1="33.3%" y1="100%" x2="100%" y2="0%"><stop offset="20%" stop-color="#002a43" stop-opacity="1"></stop><stop offset="80%" stop-color="#004461" stop-opacity="1"></stop></linearGradient></defs><defs><linearGradient id="grad1_7" x1="33.3%" y1="100%" x2="100%" y2="0%"><stop offset="20%" stop-color="#002a43" stop-opacity="1"></stop><stop offset="80%" stop-color="#001220" stop-opacity="1"></stop></linearGradient></defs><defs><linearGradient id="grad2_0" x1="0%" y1="100%" x2="66.7%" y2="0%"><stop offset="20%" stop-color="#00cc13" stop-opacity="1"></stop><stop offset="80%" stop-color="#00cc13" stop-opacity="1"></stop></linearGradient></defs><defs><linearGradient id="grad2_1" x1="0%" y1="100%" x2="66.7%" y2="0%"><stop offset="20%" stop-color="#00b350" stop-opacity="1"></stop><stop offset="80%" stop-color="#00cc13" stop-opacity="1"></stop></linearGradient></defs><defs><linearGradient id="grad2_2" x1="0%" y1="100%" x2="66.7%" y2="0%"><stop offset="20%" stop-color="#00b350" stop-opacity="1"></stop><stop offset="80%" stop-color="#00986c" stop-opacity="1"></stop></linearGradient></defs><defs><linearGradient id="grad2_3" x1="0%" y1="100%" x2="66.7%" y2="0%"><stop offset="20%" stop-color="#007c78" stop-opacity="1"></stop><stop offset="80%" stop-color="#00986c" stop-opacity="1"></stop></linearGradient></defs><defs><linearGradient id="grad2_4" x1="0%" y1="100%" x2="66.7%" y2="0%"><stop offset="20%" stop-color="#007c78" stop-opacity="1"></stop><stop offset="80%" stop-color="#006074" stop-opacity="1"></stop></linearGradient></defs><defs><linearGradient id="grad2_5" x1="0%" y1="100%" x2="66.7%" y2="0%"><stop offset="20%" stop-color="#004461" stop-opacity="1"></stop><stop offset="80%" stop-color="#006074" stop-opacity="1"></stop></linearGradient></defs><defs><linearGradient id="grad2_6" x1="0%" y1="100%" x2="66.7%" y2="0%"><stop offset="20%" stop-color="#004461" stop-opacity="1"></stop><stop offset="80%" stop-color="#002a43" stop-opacity="1"></stop></linearGradient></defs><defs><linearGradient id="grad2_7" x1="0%" y1="100%" x2="66.7%" y2="0%"><stop offset="20%" stop-color="#001220" stop-opacity="1"></stop><stop offset="80%" stop-color="#002a43" stop-opacity="1"></stop></linearGradient></defs><g transform="translate(900, 600)"><path d="M-420 0C-425.1 -39.2 -430.2 -78.5 -417.9 -112C-405.7 -145.5 -376.1 -173.3 -354.2 -204.5C-332.3 -235.7 -318.2 -270.3 -291.3 -291.3C-264.5 -312.3 -224.9 -319.8 -191.5 -331.7C-158.1 -343.6 -131 -360 -100.2 -373.8C-69.3 -387.6 -34.6 -398.8 0 -410L0 0Z" fill="#001e32"></path><path d="M-367.5 0C-372 -34.3 -376.4 -68.7 -365.7 -98C-355 -127.3 -329.1 -151.6 -309.9 -178.9C-290.8 -206.2 -278.4 -236.5 -254.9 -254.9C-231.4 -273.3 -196.7 -279.8 -167.6 -290.2C-138.4 -300.7 -114.7 -315 -87.6 -327.1C-60.6 -339.2 -30.3 -349 0 -358.7L0 0Z" fill="#003753"></path><path d="M-315 0C-318.8 -29.4 -322.6 -58.8 -313.4 -84C-304.3 -109.1 -282.1 -130 -265.7 -153.4C-249.3 -176.8 -238.6 -202.7 -218.5 -218.5C-198.3 -234.3 -168.6 -239.8 -143.6 -248.8C-118.6 -257.7 -98.3 -270 -75.1 -280.4C-52 -290.7 -26 -299.1 0 -307.5L0 0Z" fill="#00526c"></path><path d="M-262.5 0C-265.7 -24.5 -268.9 -49 -261.2 -70C-253.5 -90.9 -235 -108.3 -221.4 -127.8C-207.7 -147.3 -198.9 -168.9 -182.1 -182.1C-165.3 -195.2 -140.5 -199.9 -119.7 -207.3C-98.8 -214.8 -81.9 -225 -62.6 -233.6C-43.3 -242.3 -21.7 -249.3 0 -256.2L0 0Z" fill="#006e78"></path><path d="M-210 0C-212.5 -19.6 -215.1 -39.2 -209 -56C-202.8 -72.7 -188 -86.6 -177.1 -102.3C-166.2 -117.9 -159.1 -135.2 -145.7 -145.7C-132.2 -156.2 -112.4 -159.9 -95.8 -165.8C-79.1 -171.8 -65.5 -180 -50.1 -186.9C-34.6 -193.8 -17.3 -199.4 0 -205L0 0Z" fill="#008a74"></path><path d="M-157.5 0C-159.4 -14.7 -161.3 -29.4 -156.7 -42C-152.1 -54.6 -141 -65 -132.8 -76.7C-124.6 -88.4 -119.3 -101.4 -109.2 -109.2C-99.2 -117.1 -84.3 -119.9 -71.8 -124.4C-59.3 -128.9 -49.1 -135 -37.6 -140.2C-26 -145.4 -13 -149.6 0 -153.7L0 0Z" fill="#00a660"></path><path d="M-105 0C-106.3 -9.8 -107.5 -19.6 -104.5 -28C-101.4 -36.4 -94 -43.3 -88.6 -51.1C-83.1 -58.9 -79.5 -67.6 -72.8 -72.8C-66.1 -78.1 -56.2 -79.9 -47.9 -82.9C-39.5 -85.9 -32.8 -90 -25 -93.5C-17.3 -96.9 -8.7 -99.7 0 -102.5L0 0Z" fill="#00c03a"></path><path d="M-52.5 0C-53.1 -4.9 -53.8 -9.8 -52.2 -14C-50.7 -18.2 -47 -21.7 -44.3 -25.6C-41.5 -29.5 -39.8 -33.8 -36.4 -36.4C-33.1 -39 -28.1 -40 -23.9 -41.5C-19.8 -43 -16.4 -45 -12.5 -46.7C-8.7 -48.5 -4.3 -49.9 0 -51.2L0 0Z" fill="#00cc13"></path></g><g transform="translate(0, 0)"><path d="M419 0C392.5 29.2 365.9 58.3 364.2 97.6C362.4 136.8 385.4 186.2 370.7 214C355.9 241.8 303.5 247.9 272.9 272.9C242.4 298 233.9 342.1 208 360.3C182.1 378.5 139 370.9 101.5 378.6C63.9 386.4 32 409.5 0 432.7L0 0Z" fill="#001e32"></path><path d="M366.6 0C343.4 25.5 320.2 51 318.6 85.4C317.1 119.7 337.2 163 324.3 187.2C311.4 211.5 265.5 216.9 238.8 238.8C212.1 260.8 204.6 299.3 182 315.2C159.4 331.2 121.6 324.5 88.8 331.3C55.9 338.1 28 358.3 0 378.6L0 0Z" fill="#003753"></path><path d="M314.3 0C294.3 21.9 274.4 43.7 273.1 73.2C271.8 102.6 289 139.7 278 160.5C266.9 181.3 227.6 185.9 204.7 204.7C181.8 223.5 175.4 256.5 156 270.2C136.6 283.9 104.3 278.2 76.1 284C47.9 289.8 24 307.2 0 324.5L0 0Z" fill="#00526c"></path><path d="M261.9 0C245.3 18.2 228.7 36.4 227.6 61C226.5 85.5 240.9 116.4 231.7 133.7C222.5 151.1 189.7 154.9 170.6 170.6C151.5 186.3 146.2 213.8 130 225.2C113.8 236.6 86.9 231.8 63.4 236.7C39.9 241.5 20 256 0 270.4L0 0Z" fill="#006e78"></path><path d="M209.5 0C196.2 14.6 183 29.2 182.1 48.8C181.2 68.4 192.7 93.1 185.3 107C178 120.9 151.7 123.9 136.5 136.5C121.2 149 116.9 171 104 180.1C91.1 189.2 69.5 185.4 50.7 189.3C32 193.2 16 204.8 0 216.3L0 0Z" fill="#008a74"></path><path d="M157.1 0C147.2 10.9 137.2 21.9 136.6 36.6C135.9 51.3 144.5 69.8 139 80.2C133.5 90.7 113.8 93 102.4 102.4C90.9 111.8 87.7 128.3 78 135.1C68.3 141.9 52.1 139.1 38 142C24 144.9 12 153.6 0 162.2L0 0Z" fill="#00a660"></path><path d="M104.8 0C98.1 7.3 91.5 14.6 91 24.4C90.6 34.2 96.3 46.6 92.7 53.5C89 60.4 75.9 62 68.2 68.2C60.6 74.5 58.5 85.5 52 90.1C45.5 94.6 34.8 92.7 25.4 94.7C16 96.6 8 102.4 0 108.2L0 0Z" fill="#00c03a"></path><path d="M52.4 0C49.1 3.6 45.7 7.3 45.5 12.2C45.3 17.1 48.2 23.3 46.3 26.7C44.5 30.2 37.9 31 34.1 34.1C30.3 37.3 29.2 42.8 26 45C22.8 47.3 17.4 46.4 12.7 47.3C8 48.3 4 51.2 0 54.1L0 0Z" fill="#00cc13"></path></g></svg>